<svg id="noun_strategy_1945517" xmlns="http://www.w3.org/2000/svg" width="159.922" height="159.922" viewBox="0 0 159.922 159.922">
  <path id="Path_1229" data-name="Path 1229" d="M86.3,10.777a8,8,0,0,1,6.586-3.446h69.033V2H92.889A13.327,13.327,0,0,0,81.932,7.741L67.7,28.278A13.211,13.211,0,0,0,80.687,48.894a13.394,13.394,0,0,0,.205,4.219l-2.287,4.9-7.244-3.38a2.665,2.665,0,0,0-3.542,1.287L63.3,65.58a2.665,2.665,0,0,0,1.287,3.545l7.053,3.289L56.768,98.8A16.035,16.035,0,0,0,48.9,99.979l-1.333-8.127a2.644,2.644,0,0,0-3.06-2.2l-7.892,1.3-.3-1.836,7.6-16.773a2.665,2.665,0,0,0-2.86-3.732l-5.528.906a13.372,13.372,0,0,0-11.933-8.564l-.906-5.528-5.259.864.906,5.528A13.367,13.367,0,0,0,9.759,73.752l-5.525.909a2.665,2.665,0,0,0-1.517,4.448L15.276,92.572l.3,1.834L7.688,95.7a2.665,2.665,0,0,0-2.2,3.052l1.73,10.52a2.665,2.665,0,0,0,2.625,2.234,2.4,2.4,0,0,0,.434-.037l7.682-1.255,2.6,30.185a15.992,15.992,0,0,0-8.255,16.192H2v5.331H161.922v-5.331H48.111l9.83-1.6a2.665,2.665,0,0,0,2.2-3.062l-.432-2.631a16.019,16.019,0,0,0-13.1-13.167l-5.376-22.016,38.192,17.815a2.665,2.665,0,0,0,3.542-1.287l1.127-2.415a15.792,15.792,0,0,0-3.409-18.21l10.68-28.4,7.05,3.27a2.681,2.681,0,0,0,1.127.248,2.6,2.6,0,0,0,.909-.16,2.665,2.665,0,0,0,1.506-1.378l4.507-9.662a2.665,2.665,0,0,0-1.29-3.542l-7.244-3.364,2.284-4.9c.33-.179.629-.405.944-.608A13.14,13.14,0,0,0,113.945,71.3h47.977V65.969H113.945a8.012,8.012,0,0,1-5.92-2.62,7.932,7.932,0,0,1-2.036-6.17,8.308,8.308,0,0,1,8.415-7.2h10.2a13.327,13.327,0,0,0,0-26.654H97.953a2.666,2.666,0,0,0-2.218,1.186l-10.5,15.744c-.059.091-.139.163-.2.251a13.291,13.291,0,0,0-1.221,1.314A7.926,7.926,0,0,1,72.1,31.319ZM21.78,66.377a8,8,0,0,1,8.305,4.041L19.89,72.1l-4.683.768a8,8,0,0,1,6.573-6.49ZM10.012,79.114l13.5-2.218L34.03,75.17h0L37,74.682,31.138,87.654a2.665,2.665,0,0,0-.2,1.53l.432,2.631L24.6,92.929l-3.75.616-.432-2.633a2.665,2.665,0,0,0-.68-1.386Zm32.182,62.239a10.691,10.691,0,0,1,12.261,8.8L17.619,156.2a10.675,10.675,0,0,1,8.8-12.261l7.889-1.3Zm-18.959-32,9.974-1.639.936-.152,6.975,28.565-15.358,2.524Zm17.378-1.423-.584,1.253-.608-2.487,2.042-.336A15.825,15.825,0,0,0,40.613,107.932ZM12.046,105.8l-.864-5.259,31.563-5.184.861,5.261Zm67.215,20.171L45.445,110.187a10.661,10.661,0,0,1,14.169-5.158l14.494,6.762a10.661,10.661,0,0,1,5.155,14.169Zm-3.094-19.089-7.053-3.3-7.055-3.289L76.5,74.674l10.022,4.675Zm24.34-32.76-2.252,4.83-7.231-3.388h0L76.529,68.8h0L69.29,65.425l2.252-4.832ZM99.379,28.654h25.228a8,8,0,1,1,0,15.992H114.4a14.007,14.007,0,0,0-7.7,2.34,13.388,13.388,0,0,0-4.843-7.2l2.343-5.131L99.376,32.4l-2.34,5.12a13.748,13.748,0,0,0-3.332-.357ZM86.119,54.508a2.647,2.647,0,0,0,.144-1.866,7.887,7.887,0,0,1,.394-5.6,8.09,8.09,0,0,1,.837-1.4,12.84,12.84,0,0,0,1.234-1.287A7.983,7.983,0,0,1,101.149,53.8a7.9,7.9,0,0,1-4.03,3.9,2.665,2.665,0,0,0-1.333,1.311L93.1,64.764l-9.662-4.51Z" transform="translate(-2 -2)" fill="#fff"/>
  <rect id="Rectangle_96" data-name="Rectangle 96" width="11.92" height="5.331" transform="matrix(0.447, -0.894, 0.894, 0.447, 48.258, 57.446)" fill="#fff"/>
  <rect id="Rectangle_97" data-name="Rectangle 97" width="5.331" height="11.92" transform="matrix(0.894, -0.447, 0.447, 0.894, 34.931, 49.168)" fill="#fff"/>
  <path id="Path_1230" data-name="Path 1230" d="M33.447,61.775l2.959,4.435a20.577,20.577,0,0,0,9.182-17.144V48H40.257v1.066a15.258,15.258,0,0,1-6.813,12.71Z" transform="translate(50.366 74.607)" fill="#fff"/>
</svg>
