<svg xmlns="http://www.w3.org/2000/svg" width="191.821" height="143.865" viewBox="0 0 191.821 143.865">
  <g id="noun_code_409495" transform="translate(251.591 583.193)">
    <g id="Group_1300" data-name="Group 1300" transform="translate(-251.591 -583.193)">
      <path id="Path_1221" data-name="Path 1221" d="M19.079,17A13.147,13.147,0,0,0,6,30.079V156.506a4.36,4.36,0,0,0,4.359,4.36h183.1a4.36,4.36,0,0,0,4.36-4.359V30.079A13.147,13.147,0,0,0,184.742,17Zm0,8.719H184.742a4.258,4.258,0,0,1,4.36,4.36V47.517H14.719V30.079A4.258,4.258,0,0,1,19.079,25.719Zm6.539,6.539a4.36,4.36,0,1,0,4.36,4.36A4.36,4.36,0,0,0,25.618,32.258Zm15.258,0a4.36,4.36,0,1,0,4.36,4.36A4.36,4.36,0,0,0,40.876,32.258Zm15.258,0a4.36,4.36,0,1,0,4.36,4.36A4.36,4.36,0,0,0,56.135,32.258ZM14.719,56.236H189.1v95.91H14.719Zm99.725,10.831a4.36,4.36,0,0,0-3.474,2.793L84.813,135.253a4.36,4.36,0,1,0,8.038,3.2l26.157-65.393a4.36,4.36,0,0,0-4.564-5.994Zm-43.459,10.9a4.36,4.36,0,0,0-1.907.681L34.2,100.445a4.36,4.36,0,0,0,0,7.425l34.876,21.8a4.376,4.376,0,1,0,4.632-7.425l-28.95-18.051,28.95-18.119a4.36,4.36,0,0,0-2.725-8.106Zm61.238,0a4.36,4.36,0,0,0-2.112,8.106l28.95,18.119-28.95,18.051a4.376,4.376,0,1,0,4.632,7.425l34.876-21.8a4.36,4.36,0,0,0,0-7.425l-34.877-21.8a4.36,4.36,0,0,0-2.52-.681Z" transform="translate(-6 -17)" fill="#fff"/>
    </g>
  </g>
</svg>
