<svg xmlns="http://www.w3.org/2000/svg" width="1721" height="541" viewBox="0 0 1721 541">
  <g id="Group_1700" data-name="Group 1700" transform="translate(-123 -299)">
    <rect id="Rectangle_324" data-name="Rectangle 324" width="29" height="29" transform="translate(544 619)" fill="#cd3b49"/>
    <rect id="Rectangle_330" data-name="Rectangle 330" width="29" height="29" transform="translate(1815 470)" fill="#0e1d39"/>
    <rect id="Rectangle_332" data-name="Rectangle 332" width="29" height="29" transform="translate(1410 487)" fill="#0e1d39"/>
    <rect id="Rectangle_333" data-name="Rectangle 333" width="113" height="113" transform="translate(1239 502)" fill="#0e1d39"/>
    <rect id="Rectangle_325" data-name="Rectangle 325" width="29" height="29" transform="translate(1235 696)" fill="#cd3b49"/>
    <rect id="Rectangle_323" data-name="Rectangle 323" width="42" height="42" transform="translate(551 299)" fill="#cd3b49"/>
    <rect id="Rectangle_329" data-name="Rectangle 329" width="42" height="42" transform="translate(123 470)" fill="#0e1d39"/>
    <rect id="Rectangle_331" data-name="Rectangle 331" width="42" height="42" transform="translate(579 573)" fill="#0e1d39"/>
    <text id="HealthCare" transform="translate(567 358)" fill="#fff" font-size="50" font-family="Poppins-Light, Poppins" font-weight="300"><tspan x="0" y="0">HealthCare</tspan></text>
    <text id="Hotel_SPA" data-name="Hotel &amp; SPA" transform="translate(303 630)" fill="#fff" font-size="43" font-family="Poppins-Medium, Poppins" font-weight="500"><tspan x="0" y="0">Hotel &amp; SPA</tspan></text>
    <text id="E-commerce" transform="translate(1459 478)" fill="#fff" font-size="43" font-family="Poppins-Medium, Poppins" font-weight="500"><tspan x="0" y="0">E-commerce</tspan></text>
    <text id="Consulting" transform="translate(1249 731)" fill="#fff" font-size="33" font-family="Poppins-Light, Poppins" font-weight="300"><tspan x="0" y="0">Consulting</tspan></text>
    <text id="Start_Up" data-name="Start Up" transform="translate(730 828)" fill="#fff" font-size="33" font-family="Poppins-Light, Poppins" font-weight="300"><tspan x="0" y="0">Start Up</tspan></text>
    <rect id="Rectangle_326" data-name="Rectangle 326" width="18" height="18" transform="translate(708 784)" fill="#cd3b49"/>
    <rect id="Rectangle_328" data-name="Rectangle 328" width="18" height="18" transform="translate(197 536)" fill="#0e1d39"/>
    <rect id="Rectangle_327" data-name="Rectangle 327" width="18" height="18" transform="translate(1757 433)" fill="#0e1d39"/>
  </g>
</svg>
