<svg xmlns="http://www.w3.org/2000/svg" width="164" height="153.067" viewBox="0 0 164 153.067">
  <g id="Group_1547" data-name="Group 1547" transform="translate(-397 -3327.95)">
    <g id="Group_1447" data-name="Group 1447" transform="translate(397 3327.95)">
      <g id="Group_95" data-name="Group 95" transform="translate(0 0)">
        <g id="Group_94" data-name="Group 94">
          <path id="Path_495" data-name="Path 495" d="M155.8,89.8V29.667A13.682,13.682,0,0,0,142.133,16H21.867A13.682,13.682,0,0,0,8.2,29.667v41a8.21,8.21,0,0,0-8.2,8.2v82a8.21,8.21,0,0,0,8.2,8.2H68.333a8.21,8.21,0,0,0,8.2-8.2H99.441a8.2,8.2,0,0,0,7.91-10.357l-5.374-19.71h15.555v30.067a8.21,8.21,0,0,0,8.2,8.2H155.8a8.21,8.21,0,0,0,8.2-8.2V98A8.21,8.21,0,0,0,155.8,89.8ZM71.067,160.867a2.738,2.738,0,0,1-2.733,2.733H8.2a2.738,2.738,0,0,1-2.733-2.733V155.4h65.6Zm0-10.933H5.467V89.8h65.6Zm0-65.6H5.467V78.867A2.738,2.738,0,0,1,8.2,76.133H68.333a2.738,2.738,0,0,1,2.733,2.733Zm31.012,67.614a2.733,2.733,0,0,1-2.638,3.452H76.533v-5.467h25Zm-25.546-7.481V130.8H96.312l3.728,13.667Zm41-19.133h-41v-16.4h41Zm0-27.333v5.467h-41v-24.6a8.21,8.21,0,0,0-8.2-8.2H13.667v-41a8.21,8.21,0,0,1,8.2-8.2H142.133a8.21,8.21,0,0,1,8.2,8.2V89.8h-24.6A8.21,8.21,0,0,0,117.533,98Zm41,62.867A2.738,2.738,0,0,1,155.8,163.6H125.733A2.738,2.738,0,0,1,123,160.867V155.4h35.533Zm0-10.933H123v-41h35.533Zm0-46.467H123V98a2.738,2.738,0,0,1,2.733-2.733H155.8A2.738,2.738,0,0,1,158.533,98Z" transform="translate(0 -16)" fill="#fff"/>
        </g>
      </g>
      <g id="Group_97" data-name="Group 97" transform="translate(14.467 101.931)">
        <g id="Group_96" data-name="Group 96" transform="translate(0 0)">
          <rect id="Rectangle_28" data-name="Rectangle 28" width="15.462" height="5.467" transform="translate(0 10.934) rotate(-45)" fill="#fff"/>
        </g>
      </g>
      <g id="Group_99" data-name="Group 99" transform="translate(25.399 88.265)">
        <g id="Group_98" data-name="Group 98" transform="translate(0 0)">
          <rect id="Rectangle_29" data-name="Rectangle 29" width="46.387" height="5.467" transform="translate(0 32.8) rotate(-45)" fill="#fff"/>
        </g>
      </g>
      <g id="Group_101" data-name="Group 101" transform="translate(30.864 80.069)">
        <g id="Group_100" data-name="Group 100" transform="translate(0 0)">
          <rect id="Rectangle_30" data-name="Rectangle 30" width="23.192" height="5.467" transform="translate(0 16.399) rotate(-45)" fill="#fff"/>
        </g>
      </g>
      <g id="Group_103" data-name="Group 103" transform="translate(129.261 99.205)">
        <g id="Group_102" data-name="Group 102" transform="translate(0 0)">
          <rect id="Rectangle_31" data-name="Rectangle 31" width="19.324" height="5.467" transform="translate(0 13.664) rotate(-45)" fill="#fff"/>
        </g>
      </g>
      <g id="Group_105" data-name="Group 105" transform="translate(134.727 110.15)">
        <g id="Group_104" data-name="Group 104" transform="translate(0 0)">
          <rect id="Rectangle_32" data-name="Rectangle 32" width="19.324" height="5.467" transform="translate(0 13.664) rotate(-45)" fill="#fff"/>
        </g>
      </g>
      <g id="Group_107" data-name="Group 107" transform="translate(71.864 30.869)">
        <g id="Group_106" data-name="Group 106" transform="translate(0 0)">
          <rect id="Rectangle_33" data-name="Rectangle 33" width="23.192" height="5.467" transform="translate(0 16.399) rotate(-45)" fill="#fff"/>
        </g>
      </g>
      <g id="Group_109" data-name="Group 109" transform="translate(96.466 25.402)">
        <g id="Group_108" data-name="Group 108" transform="translate(0 0)">
          <rect id="Rectangle_34" data-name="Rectangle 34" width="23.192" height="5.467" transform="translate(0 16.399) rotate(-45)" fill="#fff"/>
        </g>
      </g>
      <g id="Group_111" data-name="Group 111" transform="translate(80.063 47.271)">
        <g id="Group_110" data-name="Group 110" transform="translate(0 0)">
          <rect id="Rectangle_35" data-name="Rectangle 35" width="15.462" height="5.467" transform="translate(0 10.934) rotate(-45)" fill="#fff"/>
        </g>
      </g>
      <g id="Group_113" data-name="Group 113" transform="translate(93.715 14.475)">
        <g id="Group_112" data-name="Group 112" transform="translate(0 0)">
          <rect id="Rectangle_36" data-name="Rectangle 36" width="15.501" height="5.467" transform="translate(0 10.961) rotate(-45)" fill="#fff"/>
        </g>
      </g>
      <g id="Group_115" data-name="Group 115" transform="translate(19.132 10.933)">
        <g id="Group_114" data-name="Group 114">
          <rect id="Rectangle_37" data-name="Rectangle 37" width="5.467" height="5.467" fill="#fff"/>
        </g>
      </g>
      <g id="Group_117" data-name="Group 117" transform="translate(30.066 10.933)">
        <g id="Group_116" data-name="Group 116">
          <rect id="Rectangle_38" data-name="Rectangle 38" width="5.467" height="5.467" fill="#fff"/>
        </g>
      </g>
      <g id="Group_119" data-name="Group 119" transform="translate(40.999 10.933)">
        <g id="Group_118" data-name="Group 118">
          <rect id="Rectangle_39" data-name="Rectangle 39" width="5.467" height="5.467" fill="#fff"/>
        </g>
      </g>
    </g>
  </g>
</svg>
